CddbId:6a0fb163:[150, 896, 3313, 6866, 9798, 13045, 16082, 19335, 22811, 25897, 29178, 32445, 35573, 38568, 41758, 45409, 48306, 51434, 54743, 58505, 61646, 64718, 68076, 70674, 72778, 75947, 78337, 80984, 84641, 87504, 91447, 94888, 98503, 101276, 105142, 108562, 111996, 113912, 117207, 119499, 122097, 124549, 127586, 130881, 134350, 136698, 139735, 142682, 146060, 148373, 150651, 153103, 156488, 159456, 161559, 165286, 167696, 169765, 172538, 175944, 178097, 180207, 182590, 184714, 187626, 191179, 194641, 197852, 201238, 203968, 206713, 210189, 213470, 217322, 220074, 222637, 224804, 228098, 230272, 232640, 235740, 238596, 241571, 244650, 246983, 250738, 253169, 255893, 258623, 261103, 263778, 267352, 270612, 273440, 276115, 279480, 283025, 293077, 297856]:301425:74:6a0fb163 99 150 896 3313 6866 9798 13045 16082 19335 22811 25897 29178 32445 35573 38568 41758 45409 48306 51434 54743 58505 61646 64718 68076 70674 72778 75947 78337 80984 84641 87504 91447 94888 98503 101276 105142 108562 111996 113912 117207 119499 122097 124549 127586 130881 134350 136698 139735 142682 146060 148373 150651 153103 156488 159456 161559 165286 167696 169765 172538 175944 178097 180207 182590 184714 187626 191179 194641 197852 201238 203968 206713 210189 213470 217322 220074 222637 224804 228098 230272 232640 235740 238596 241571 244650 246983 250738 253169 255893 258623 261103 263778 267352 270612 273440 276115 279480 283025 293077 297856 4019: 99 0 0 0 0 0 0 0 0 0 0 0 0 0 0 0 0 0 0 0 0 0 0 0 0 0 0 0 0 0 0 0 0 0 0 0 0 0 0 0 0 0 0 0 0 0 0 0 0 0 0 0 0 0 0 0 0 0 0 0 0 0 0 0 0 0 0 0 0 0 0 0 0 0 0 0 0 0 0 0 0 0 0 0 0 0 0 0 0 0 0 0 0 0 0 0 0 0 0 0 4019
num_tracks: 99
offsets: [150, 896, 3313, 6866, 9798, 13045, 16082, 19335, 22811, 25897, 29178, 32445, 35573, 38568, 41758, 45409, 48306, 51434, 54743, 58505, 61646, 64718, 68076, 70674, 72778, 75947, 78337, 80984, 84641, 87504, 91447, 94888, 98503, 101276, 105142, 108562, 111996, 113912, 117207, 119499, 122097, 124549, 127586, 130881, 134350, 136698, 139735, 142682, 146060, 148373, 150651, 153103, 156488, 159456, 161559, 165286, 167696, 169765, 172538, 175944, 178097, 180207, 182590, 184714, 187626, 191179, 194641, 197852, 201238, 203968, 206713, 210189, 213470, 217322, 220074, 222637, 224804, 228098, 230272, 232640, 235740, 238596, 241571, 244650, 246983, 250738, 253169, 255893, 258623, 261103, 263778, 267352, 270612, 273440, 276115, 279480, 283025, 293077, 297856]
extents: [0, 0, 0, 0, 0, 0, 0, 0, 0, 0, 0, 0, 0, 0, 0, 0, 0, 0, 0, 0, 0, 0, 0, 0, 0, 0, 0, 0, 0, 0, 0, 0, 0, 0, 0, 0, 0, 0, 0, 0, 0, 0, 0, 0, 0, 0, 0, 0, 0, 0, 0, 0, 0, 0, 0, 0, 0, 0, 0, 0, 0, 0, 0, 0, 0, 0, 0, 0, 0, 0, 0, 0, 0, 0, 0, 0, 0, 0, 0, 0, 0, 0, 0, 0, 0, 0, 0, 0, 0, 0, 0, 0, 0, 0, 0, 0, 0, 0, 0]
total_length: 4019
cddb: [1779413347, 99, 150, 896, 3313, 6866, 9798, 13045, 16082, 19335, 22811, 25897, 29178, 32445, 35573, 38568, 41758, 45409, 48306, 51434, 54743, 58505, 61646, 64718, 68076, 70674, 72778, 75947, 78337, 80984, 84641, 87504, 91447, 94888, 98503, 101276, 105142, 108562, 111996, 113912, 117207, 119499, 122097, 124549, 127586, 130881, 134350, 136698, 139735, 142682, 146060, 148373, 150651, 153103, 156488, 159456, 161559, 165286, 167696, 169765, 172538, 175944, 178097, 180207, 182590, 184714, 187626, 191179, 194641, 197852, 201238, 203968, 206713, 210189, 213470, 217322, 220074, 222637, 224804, 228098, 230272, 232640, 235740, 238596, 241571, 244650, 246983, 250738, 253169, 255893, 258623, 261103, 263778, 267352, 270612, 273440, 276115, 279480, 283025, 293077, 297856, 4019]
musicbrainz: ('99 150 896 3313 6866 9798 13045 16082 19335 22811 25897 29178 32445 35573 38568 41758 45409 48306 51434 54743 58505 61646 64718 68076 70674 72778 75947 78337 80984 84641 87504 91447 94888 98503 101276 105142 108562 111996 113912 117207 119499 122097 124549 127586 130881 134350 136698 139735 142682 146060 148373 150651 153103 156488 159456 161559 165286 167696 169765 172538 175944 178097 180207 182590 184714 187626 191179 194641 197852 201238 203968 206713 210189 213470 217322 220074 222637 224804 228098 230272 232640 235740 238596 241571 244650 246983 250738 253169 255893 258623 261103 263778 267352 270612 273440 276115 279480 283025 293077 297856 301494', 'XIcwIZD3od.nGPbDMO7_N3VmIOI-')

CD record:
Device type    : Removable CD-ROM
Version        : 0
Response Format: 2
Capabilities   : 
Vendor_info    : 'FREECOM_'
Identification : 'DVD+/-RW16H4    '
Revision       : 'FR00'
Device seems to be: Generic mmc2 DVD-R/DVD-RW.
Using generic SCSI-3/mmc   CD-R/CD-RW driver (mmc_cdr).
Driver flags   : MMC-3 SWABAUDIO BURNFREE 
Supported modes: TAO PACKET SAO SAO/R96R RAW/R96R
first: 1 last 99
track:   1 lba:         0 (        0) 00:02:00 adr: 1 control: 0 mode: -1
track:   2 lba:       746 (     2984) 00:11:71 adr: 1 control: 0 mode: -1
track:   3 lba:      3163 (    12652) 00:44:13 adr: 1 control: 0 mode: -1
track:   4 lba:      6716 (    26864) 01:31:41 adr: 1 control: 0 mode: -1
track:   5 lba:      9648 (    38592) 02:10:48 adr: 1 control: 0 mode: -1
track:   6 lba:     12895 (    51580) 02:53:70 adr: 1 control: 0 mode: -1
track:   7 lba:     15932 (    63728) 03:34:32 adr: 1 control: 0 mode: -1
track:   8 lba:     19185 (    76740) 04:17:60 adr: 1 control: 0 mode: -1
track:   9 lba:     22661 (    90644) 05:04:11 adr: 1 control: 0 mode: -1
track:  10 lba:     25747 (   102988) 05:45:22 adr: 1 control: 0 mode: -1
track:  11 lba:     29028 (   116112) 06:29:03 adr: 1 control: 0 mode: -1
track:  12 lba:     32295 (   129180) 07:12:45 adr: 1 control: 0 mode: -1
track:  13 lba:     35423 (   141692) 07:54:23 adr: 1 control: 0 mode: -1
track:  14 lba:     38418 (   153672) 08:34:18 adr: 1 control: 0 mode: -1
track:  15 lba:     41608 (   166432) 09:16:58 adr: 1 control: 0 mode: -1
track:  16 lba:     45259 (   181036) 10:05:34 adr: 1 control: 0 mode: -1
track:  17 lba:     48156 (   192624) 10:44:06 adr: 1 control: 0 mode: -1
track:  18 lba:     51284 (   205136) 11:25:59 adr: 1 control: 0 mode: -1
track:  19 lba:     54593 (   218372) 12:09:68 adr: 1 control: 0 mode: -1
track:  20 lba:     58355 (   233420) 13:00:05 adr: 1 control: 0 mode: -1
track:  21 lba:     61496 (   245984) 13:41:71 adr: 1 control: 0 mode: -1
track:  22 lba:     64568 (   258272) 14:22:68 adr: 1 control: 0 mode: -1
track:  23 lba:     67926 (   271704) 15:07:51 adr: 1 control: 0 mode: -1
track:  24 lba:     70524 (   282096) 15:42:24 adr: 1 control: 0 mode: -1
track:  25 lba:     72628 (   290512) 16:10:28 adr: 1 control: 0 mode: -1
track:  26 lba:     75797 (   303188) 16:52:47 adr: 1 control: 0 mode: -1
track:  27 lba:     78187 (   312748) 17:24:37 adr: 1 control: 0 mode: -1
track:  28 lba:     80834 (   323336) 17:59:59 adr: 1 control: 0 mode: -1
track:  29 lba:     84491 (   337964) 18:48:41 adr: 1 control: 0 mode: -1
track:  30 lba:     87354 (   349416) 19:26:54 adr: 1 control: 0 mode: -1
track:  31 lba:     91297 (   365188) 20:19:22 adr: 1 control: 0 mode: -1
track:  32 lba:     94738 (   378952) 21:05:13 adr: 1 control: 0 mode: -1
track:  33 lba:     98353 (   393412) 21:53:28 adr: 1 control: 0 mode: -1
track:  34 lba:    101126 (   404504) 22:30:26 adr: 1 control: 0 mode: -1
track:  35 lba:    104992 (   419968) 23:21:67 adr: 1 control: 0 mode: -1
track:  36 lba:    108412 (   433648) 24:07:37 adr: 1 control: 0 mode: -1
track:  37 lba:    111846 (   447384) 24:53:21 adr: 1 control: 0 mode: -1
track:  38 lba:    113762 (   455048) 25:18:62 adr: 1 control: 0 mode: -1
track:  39 lba:    117057 (   468228) 26:02:57 adr: 1 control: 0 mode: -1
track:  40 lba:    119349 (   477396) 26:33:24 adr: 1 control: 0 mode: -1
track:  41 lba:    121947 (   487788) 27:07:72 adr: 1 control: 0 mode: -1
track:  42 lba:    124399 (   497596) 27:40:49 adr: 1 control: 0 mode: -1
track:  43 lba:    127436 (   509744) 28:21:11 adr: 1 control: 0 mode: -1
track:  44 lba:    130731 (   522924) 29:05:06 adr: 1 control: 0 mode: -1
track:  45 lba:    134200 (   536800) 29:51:25 adr: 1 control: 0 mode: -1
track:  46 lba:    136548 (   546192) 30:22:48 adr: 1 control: 0 mode: -1
track:  47 lba:    139585 (   558340) 31:03:10 adr: 1 control: 0 mode: -1
track:  48 lba:    142532 (   570128) 31:42:32 adr: 1 control: 0 mode: -1
track:  49 lba:    145910 (   583640) 32:27:35 adr: 1 control: 0 mode: -1
track:  50 lba:    148223 (   592892) 32:58:23 adr: 1 control: 0 mode: -1
track:  51 lba:    150501 (   602004) 33:28:51 adr: 1 control: 0 mode: -1
track:  52 lba:    152953 (   611812) 34:01:28 adr: 1 control: 0 mode: -1
track:  53 lba:    156338 (   625352) 34:46:38 adr: 1 control: 0 mode: -1
track:  54 lba:    159306 (   637224) 35:26:06 adr: 1 control: 0 mode: -1
track:  55 lba:    161409 (   645636) 35:54:09 adr: 1 control: 0 mode: -1
track:  56 lba:    165136 (   660544) 36:43:61 adr: 1 control: 0 mode: -1
track:  57 lba:    167546 (   670184) 37:15:71 adr: 1 control: 0 mode: -1
track:  58 lba:    169615 (   678460) 37:43:40 adr: 1 control: 0 mode: -1
track:  59 lba:    172388 (   689552) 38:20:38 adr: 1 control: 0 mode: -1
track:  60 lba:    175794 (   703176) 39:05:69 adr: 1 control: 0 mode: -1
track:  61 lba:    177947 (   711788) 39:34:47 adr: 1 control: 0 mode: -1
track:  62 lba:    180057 (   720228) 40:02:57 adr: 1 control: 0 mode: -1
track:  63 lba:    182440 (   729760) 40:34:40 adr: 1 control: 0 mode: -1
track:  64 lba:    184564 (   738256) 41:02:64 adr: 1 control: 0 mode: -1
track:  65 lba:    187476 (   749904) 41:41:51 adr: 1 control: 0 mode: -1
track:  66 lba:    191029 (   764116) 42:29:04 adr: 1 control: 0 mode: -1
track:  67 lba:    194491 (   777964) 43:15:16 adr: 1 control: 0 mode: -1
track:  68 lba:    197702 (   790808) 43:58:02 adr: 1 control: 0 mode: -1
track:  69 lba:    201088 (   804352) 44:43:13 adr: 1 control: 0 mode: -1
track:  70 lba:    203818 (   815272) 45:19:43 adr: 1 control: 0 mode: -1
track:  71 lba:    206563 (   826252) 45:56:13 adr: 1 control: 0 mode: -1
track:  72 lba:    210039 (   840156) 46:42:39 adr: 1 control: 0 mode: -1
track:  73 lba:    213320 (   853280) 47:26:20 adr: 1 control: 0 mode: -1
track:  74 lba:    217172 (   868688) 48:17:47 adr: 1 control: 0 mode: -1
track:  75 lba:    219924 (   879696) 48:54:24 adr: 1 control: 0 mode: -1
track:  76 lba:    222487 (   889948) 49:28:37 adr: 1 control: 0 mode: -1
track:  77 lba:    224654 (   898616) 49:57:29 adr: 1 control: 0 mode: -1
track:  78 lba:    227948 (   911792) 50:41:23 adr: 1 control: 0 mode: -1
track:  79 lba:    230122 (   920488) 51:10:22 adr: 1 control: 0 mode: -1
track:  80 lba:    232490 (   929960) 51:41:65 adr: 1 control: 0 mode: -1
track:  81 lba:    235590 (   942360) 52:23:15 adr: 1 control: 0 mode: -1
track:  82 lba:    238446 (   953784) 53:01:21 adr: 1 control: 0 mode: -1
track:  83 lba:    241421 (   965684) 53:40:71 adr: 1 control: 0 mode: -1
track:  84 lba:    244500 (   978000) 54:22:00 adr: 1 control: 0 mode: -1
track:  85 lba:    246833 (   987332) 54:53:08 adr: 1 control: 0 mode: -1
track:  86 lba:    250588 (  1002352) 55:43:13 adr: 1 control: 0 mode: -1
track:  87 lba:    253019 (  1012076) 56:15:44 adr: 1 control: 0 mode: -1
track:  88 lba:    255743 (  1022972) 56:51:68 adr: 1 control: 0 mode: -1
track:  89 lba:    258473 (  1033892) 57:28:23 adr: 1 control: 0 mode: -1
track:  90 lba:    260953 (  1043812) 58:01:28 adr: 1 control: 0 mode: -1
track:  91 lba:    263628 (  1054512) 58:37:03 adr: 1 control: 0 mode: -1
track:  92 lba:    267202 (  1068808) 59:24:52 adr: 1 control: 0 mode: -1
track:  93 lba:    270462 (  1081848) 60:08:12 adr: 1 control: 0 mode: -1
track:  94 lba:    273290 (  1093160) 60:45:65 adr: 1 control: 0 mode: -1
track:  95 lba:    275965 (  1103860) 61:21:40 adr: 1 control: 0 mode: -1
track:  96 lba:    279330 (  1117320) 62:06:30 adr: 1 control: 0 mode: -1
track:  97 lba:    282875 (  1131500) 62:53:50 adr: 1 control: 0 mode: -1
track:  98 lba:    292927 (  1171708) 65:07:52 adr: 1 control: 0 mode: -1
track:  99 lba:    297706 (  1190824) 66:11:31 adr: 1 control: 0 mode: -1
track:lout lba:    301344 (  1205376) 66:59:69 adr: 1 control: 0 mode: -1
